# xmcd
#
# Track frame offsets:
#	150
#	15597
#	29452
#	41843
#	56767
#	73638
#	88359
#	105984
#	120650
#	136711
#	152385
#	164303
#
# Disc length: 2427 seconds
#
# Revision: 0
# Processed by: cddbd v1.5.2PL0 Copyright (c) Steve Scherf et al.
# Submitted via: EasyCDDAExtractor 12.1.0.1
#
DISCID=9609790c
DTITLE=Lady Daisey - In My Pocket
DYEAR=2010
DGENRE=Funk
TTITLE0=4 AM
TTITLE1=Soul Strut
TTITLE2=Hometown
TTITLE3=Day Old Bread
TTITLE4=Magical
TTITLE5=Gotta Get Up
TTITLE6=Wants and Needs feat Akrobatik
TTITLE7=Goes Down Like
TTITLE8=Big Time
TTITLE9=Promise Sunshine
TTITLE10=My Story
TTITLE11=Soul Celebration
EXTD=
EXTT0=
EXTT1=
EXTT2=
EXTT3=
EXTT4=
EXTT5=
EXTT6=
EXTT7=
EXTT8=
EXTT9=
EXTT10=
EXTT11=
PLAYORDER=
